<mxfile host="65bd71144e">
    <diagram id="pC-B6S0rdDxkuBSMHx7C" name="Page-1">
        <mxGraphModel dx="898" dy="627" grid="1" gridSize="10" guides="1" tooltips="1" connect="1" arrows="1" fold="1" page="1" pageScale="1" pageWidth="850" pageHeight="1100" math="0" shadow="0">
            <root>
                <mxCell id="0"/>
                <mxCell id="1" parent="0"/>
                <mxCell id="16" style="edgeStyle=none;html=1;exitX=0.5;exitY=1;exitDx=0;exitDy=0;entryX=0.5;entryY=0;entryDx=0;entryDy=0;fontSize=11;" edge="1" parent="1" source="2" target="3">
                    <mxGeometry relative="1" as="geometry"/>
                </mxCell>
                <mxCell id="25" style="edgeStyle=orthogonalEdgeStyle;curved=1;html=1;exitX=0;exitY=0.5;exitDx=0;exitDy=0;entryX=0.75;entryY=0;entryDx=0;entryDy=0;fontSize=11;endArrow=openThin;endFill=0;fillColor=#d80073;strokeColor=#A50040;" edge="1" parent="1" source="2" target="5">
                    <mxGeometry relative="1" as="geometry"/>
                </mxCell>
                <mxCell id="52" style="edgeStyle=orthogonalEdgeStyle;rounded=1;html=1;exitX=0;exitY=0.5;exitDx=0;exitDy=0;entryX=0.25;entryY=0;entryDx=0;entryDy=0;fontSize=11;endArrow=classicThin;endFill=1;fillColor=#1ba1e2;strokeColor=#006EAF;" edge="1" parent="1" source="2" target="5">
                    <mxGeometry relative="1" as="geometry"/>
                </mxCell>
                <mxCell id="2" value="&lt;font size=&quot;1&quot;&gt;Create New App&lt;/font&gt;" style="rounded=0;whiteSpace=wrap;html=1;" vertex="1" parent="1">
                    <mxGeometry x="370" y="120" width="120" height="60" as="geometry"/>
                </mxCell>
                <mxCell id="18" style="edgeStyle=none;html=1;exitX=0;exitY=0.5;exitDx=0;exitDy=0;entryX=1;entryY=0.5;entryDx=0;entryDy=0;fontSize=11;startArrow=none;" edge="1" parent="1" source="40" target="5">
                    <mxGeometry relative="1" as="geometry"/>
                </mxCell>
                <mxCell id="58" style="edgeStyle=orthogonalEdgeStyle;rounded=1;html=1;exitX=0.5;exitY=1;exitDx=0;exitDy=0;entryX=1;entryY=0.5;entryDx=0;entryDy=0;fontSize=11;endArrow=classic;endFill=1;" edge="1" parent="1" source="3" target="56">
                    <mxGeometry relative="1" as="geometry"/>
                </mxCell>
                <mxCell id="3" value="is_exists?" style="rhombus;whiteSpace=wrap;html=1;fontSize=11;" vertex="1" parent="1">
                    <mxGeometry x="390" y="230" width="80" height="80" as="geometry"/>
                </mxCell>
                <mxCell id="38" style="edgeStyle=orthogonalEdgeStyle;html=1;exitX=0;exitY=0.5;exitDx=0;exitDy=0;entryX=1;entryY=0.5;entryDx=0;entryDy=0;entryPerimeter=0;fontSize=11;endArrow=classic;endFill=1;rounded=1;fillColor=#6a00ff;strokeColor=#3700CC;" edge="1" parent="1" source="5" target="37">
                    <mxGeometry relative="1" as="geometry"/>
                </mxCell>
                <mxCell id="57" style="edgeStyle=orthogonalEdgeStyle;rounded=1;html=1;exitX=0.5;exitY=1;exitDx=0;exitDy=0;entryX=0.5;entryY=0;entryDx=0;entryDy=0;fontSize=11;endArrow=classic;endFill=1;" edge="1" parent="1" source="5" target="56">
                    <mxGeometry relative="1" as="geometry"/>
                </mxCell>
                <mxCell id="5" value="&lt;font size=&quot;1&quot;&gt;Creating App&lt;/font&gt;" style="rounded=0;whiteSpace=wrap;html=1;" vertex="1" parent="1">
                    <mxGeometry x="170" y="240" width="120" height="60" as="geometry"/>
                </mxCell>
                <mxCell id="31" style="edgeStyle=orthogonalEdgeStyle;curved=1;html=1;exitX=0.5;exitY=1;exitDx=0;exitDy=0;entryX=0.5;entryY=0;entryDx=0;entryDy=0;fontSize=11;endArrow=classic;endFill=1;" edge="1" parent="1" source="7" target="30">
                    <mxGeometry relative="1" as="geometry"/>
                </mxCell>
                <mxCell id="46" style="edgeStyle=orthogonalEdgeStyle;rounded=1;html=1;exitX=0;exitY=0.5;exitDx=0;exitDy=0;entryX=1;entryY=0.5;entryDx=0;entryDy=0;entryPerimeter=0;fontSize=11;endArrow=classicThin;endFill=1;fillColor=#0050ef;strokeColor=#001DBC;" edge="1" parent="1" source="7" target="37">
                    <mxGeometry relative="1" as="geometry"/>
                </mxCell>
                <mxCell id="7" value="Create ACL Token" style="shape=parallelogram;perimeter=parallelogramPerimeter;whiteSpace=wrap;html=1;fixedSize=1;fontSize=11;" vertex="1" parent="1">
                    <mxGeometry x="375" y="530" width="120" height="60" as="geometry"/>
                </mxCell>
                <mxCell id="21" style="edgeStyle=orthogonalEdgeStyle;curved=1;html=1;exitX=0;exitY=0.5;exitDx=0;exitDy=0;entryX=1;entryY=0.5;entryDx=0;entryDy=0;fontSize=11;fillColor=#d80073;strokeColor=#A50040;endArrow=none;endFill=0;" edge="1" parent="1" source="10" target="2">
                    <mxGeometry relative="1" as="geometry">
                        <Array as="points">
                            <mxPoint x="515" y="100"/>
                            <mxPoint x="515" y="140"/>
                            <mxPoint x="490" y="140"/>
                        </Array>
                    </mxGeometry>
                </mxCell>
                <mxCell id="10" value="userToken" style="rounded=1;whiteSpace=wrap;html=1;fontSize=11;arcSize=50;fillColor=#a20025;fontColor=#ffffff;strokeColor=#6F0000;" vertex="1" parent="1">
                    <mxGeometry x="540" y="90" width="70" height="20" as="geometry"/>
                </mxCell>
                <mxCell id="13" value="Query/Body" style="rounded=0;whiteSpace=wrap;html=1;fontSize=11;fillColor=#1ba1e2;fontColor=#ffffff;strokeColor=#006EAF;" vertex="1" parent="1">
                    <mxGeometry width="80" height="30" as="geometry"/>
                </mxCell>
                <mxCell id="14" value="Headers" style="rounded=0;whiteSpace=wrap;html=1;fontSize=11;fillColor=#a20025;fontColor=#ffffff;strokeColor=#6F0000;" vertex="1" parent="1">
                    <mxGeometry y="30" width="80" height="30" as="geometry"/>
                </mxCell>
                <mxCell id="55" style="edgeStyle=orthogonalEdgeStyle;rounded=1;html=1;exitX=0;exitY=0.5;exitDx=0;exitDy=0;entryX=1.017;entryY=0.4;entryDx=0;entryDy=0;entryPerimeter=0;fontSize=11;endArrow=none;endFill=0;fillColor=#1ba1e2;strokeColor=#006EAF;" edge="1" parent="1" source="23" target="2">
                    <mxGeometry relative="1" as="geometry"/>
                </mxCell>
                <mxCell id="23" value="&lt;span&gt;appName&lt;/span&gt;" style="rounded=1;whiteSpace=wrap;html=1;fontSize=11;arcSize=50;fillColor=#1ba1e2;fontColor=#ffffff;strokeColor=#006EAF;" vertex="1" parent="1">
                    <mxGeometry x="540" y="180" width="70" height="20" as="geometry"/>
                </mxCell>
                <mxCell id="26" value="&lt;span&gt;appName&lt;/span&gt;" style="rounded=1;whiteSpace=wrap;html=1;fontSize=11;arcSize=50;fillColor=#1ba1e2;fontColor=#ffffff;strokeColor=#006EAF;" vertex="1" parent="1">
                    <mxGeometry x="160" y="170" width="70" height="20" as="geometry"/>
                </mxCell>
                <mxCell id="47" style="edgeStyle=orthogonalEdgeStyle;rounded=1;html=1;exitX=0;exitY=0.5;exitDx=0;exitDy=0;entryX=1;entryY=0.3333333333333333;entryDx=0;entryDy=0;entryPerimeter=0;fontSize=11;endArrow=classicThin;endFill=1;fillColor=#60a917;strokeColor=#2D7600;startArrow=none;" edge="1" parent="1" source="34" target="32">
                    <mxGeometry relative="1" as="geometry"/>
                </mxCell>
                <mxCell id="30" value="Access Token" style="shape=document;whiteSpace=wrap;html=1;boundedLbl=1;fontSize=11;" vertex="1" parent="1">
                    <mxGeometry x="380" y="650" width="110" height="60" as="geometry"/>
                </mxCell>
                <mxCell id="32" value="User" style="shape=umlActor;verticalLabelPosition=bottom;verticalAlign=top;html=1;outlineConnect=0;fontSize=11;" vertex="1" parent="1">
                    <mxGeometry x="190" y="640" width="30" height="60" as="geometry"/>
                </mxCell>
                <mxCell id="35" value="Response" style="rounded=0;whiteSpace=wrap;html=1;fontSize=11;fillColor=#008a00;fontColor=#ffffff;strokeColor=#005700;" vertex="1" parent="1">
                    <mxGeometry y="60" width="80" height="30" as="geometry"/>
                </mxCell>
                <mxCell id="37" value="DB" style="shape=cylinder3;whiteSpace=wrap;html=1;boundedLbl=1;backgroundOutline=1;size=15;fontSize=11;" vertex="1" parent="1">
                    <mxGeometry x="20" y="390" width="60" height="80" as="geometry"/>
                </mxCell>
                <mxCell id="40" value="No" style="rounded=0;whiteSpace=wrap;html=1;fontSize=11;fillColor=#60a917;fontColor=#ffffff;strokeColor=#2D7600;" vertex="1" parent="1">
                    <mxGeometry x="330" y="260" width="30" height="20" as="geometry"/>
                </mxCell>
                <mxCell id="41" value="" style="edgeStyle=none;html=1;exitX=0;exitY=0.5;exitDx=0;exitDy=0;entryX=1;entryY=0.5;entryDx=0;entryDy=0;fontSize=11;endArrow=none;" edge="1" parent="1" source="3" target="40">
                    <mxGeometry relative="1" as="geometry">
                        <mxPoint x="390" y="270" as="sourcePoint"/>
                        <mxPoint x="290" y="270" as="targetPoint"/>
                    </mxGeometry>
                </mxCell>
                <mxCell id="42" value="Yes" style="rounded=0;whiteSpace=wrap;html=1;fontSize=11;fillColor=#e51400;fontColor=#ffffff;strokeColor=#B20000;" vertex="1" parent="1">
                    <mxGeometry x="415" y="340" width="30" height="20" as="geometry"/>
                </mxCell>
                <mxCell id="45" style="edgeStyle=orthogonalEdgeStyle;rounded=1;html=1;exitX=0.5;exitY=1;exitDx=0;exitDy=0;entryX=0.5;entryY=0;entryDx=0;entryDy=0;fontSize=11;endArrow=classicThin;endFill=1;fillColor=#1ba1e2;strokeColor=#006EAF;" edge="1" parent="1" source="44" target="7">
                    <mxGeometry relative="1" as="geometry"/>
                </mxCell>
                <mxCell id="44" value="&lt;font size=&quot;1&quot;&gt;Create New Token&lt;/font&gt;" style="rounded=0;whiteSpace=wrap;html=1;" vertex="1" parent="1">
                    <mxGeometry x="375" y="400" width="120" height="60" as="geometry"/>
                </mxCell>
                <mxCell id="34" value="&lt;span&gt;Token&lt;/span&gt;" style="rounded=1;whiteSpace=wrap;html=1;fontSize=11;arcSize=50;fillColor=#008a00;fontColor=#ffffff;strokeColor=#005700;" vertex="1" parent="1">
                    <mxGeometry x="260" y="650" width="70" height="20" as="geometry"/>
                </mxCell>
                <mxCell id="48" value="" style="edgeStyle=orthogonalEdgeStyle;rounded=1;html=1;exitX=0;exitY=0.5;exitDx=0;exitDy=0;entryX=1;entryY=0.3333333333333333;entryDx=0;entryDy=0;entryPerimeter=0;fontSize=11;endArrow=none;endFill=1;fillColor=#60a917;strokeColor=#2D7600;" edge="1" parent="1" source="30" target="34">
                    <mxGeometry relative="1" as="geometry">
                        <mxPoint x="380" y="680" as="sourcePoint"/>
                        <mxPoint x="220" y="660" as="targetPoint"/>
                    </mxGeometry>
                </mxCell>
                <mxCell id="50" value="userToken" style="rounded=1;whiteSpace=wrap;html=1;fontSize=11;arcSize=50;fillColor=#a20025;fontColor=#ffffff;strokeColor=#6F0000;" vertex="1" parent="1">
                    <mxGeometry x="250" y="190" width="70" height="20" as="geometry"/>
                </mxCell>
                <mxCell id="54" value="&lt;span&gt;accessList&lt;/span&gt;" style="rounded=1;whiteSpace=wrap;html=1;fontSize=11;arcSize=50;fillColor=#1ba1e2;fontColor=#ffffff;strokeColor=#006EAF;" vertex="1" parent="1">
                    <mxGeometry x="440" y="480" width="70" height="20" as="geometry"/>
                </mxCell>
                <mxCell id="56" value="Done" style="ellipse;whiteSpace=wrap;html=1;fontSize=11;" vertex="1" parent="1">
                    <mxGeometry x="190" y="330" width="80" height="40" as="geometry"/>
                </mxCell>
                <mxCell id="60" style="edgeStyle=orthogonalEdgeStyle;rounded=1;html=1;exitX=0;exitY=0.5;exitDx=0;exitDy=0;entryX=1;entryY=0.5;entryDx=0;entryDy=0;fontSize=11;endArrow=none;endFill=0;fillColor=#1ba1e2;strokeColor=#006EAF;" edge="1" parent="1" source="59" target="3">
                    <mxGeometry relative="1" as="geometry"/>
                </mxCell>
                <mxCell id="59" value="&lt;span&gt;appName&lt;/span&gt;" style="rounded=1;whiteSpace=wrap;html=1;fontSize=11;arcSize=50;fillColor=#1ba1e2;fontColor=#ffffff;strokeColor=#006EAF;" vertex="1" parent="1">
                    <mxGeometry x="520" y="290" width="70" height="20" as="geometry"/>
                </mxCell>
            </root>
        </mxGraphModel>
    </diagram>
</mxfile>